<?xml version="1.0" encoding="UTF-8" standalone="no"?>
<!-- Generator: Adobe Illustrator 16.0.0, SVG Export Plug-In . SVG Version: 6.00 Build 0)  -->

<svg
   xmlns:dc="http://purl.org/dc/elements/1.1/"
   xmlns:cc="http://creativecommons.org/ns#"
   xmlns:rdf="http://www.w3.org/1999/02/22-rdf-syntax-ns#"
   xmlns:svg="http://www.w3.org/2000/svg"
   xmlns="http://www.w3.org/2000/svg"
   xmlns:xlink="http://www.w3.org/1999/xlink"
   xmlns:sodipodi="http://sodipodi.sourceforge.net/DTD/sodipodi-0.dtd"
   xmlns:inkscape="http://www.inkscape.org/namespaces/inkscape"
   version="1.1"
   id="Calque_1"
   x="0px"
   y="0px"
   width="577.847px"
   height="493.89px"
   viewBox="0 0 577.847 493.89"
   enable-background="new 0 0 577.847 493.89"
   xml:space="preserve"
   inkscape:version="0.91 r13725"
   sodipodi:docname="logo-veto.svg"><metadata
     id="metadata87"><rdf:RDF><cc:Work
         rdf:about=""><dc:format>image/svg+xml</dc:format><dc:type
           rdf:resource="http://purl.org/dc/dcmitype/StillImage" /><dc:title></dc:title></cc:Work></rdf:RDF></metadata><defs
     id="defs85" /><sodipodi:namedview
     pagecolor="#ffffff"
     bordercolor="#666666"
     borderopacity="1"
     objecttolerance="10"
     gridtolerance="10"
     guidetolerance="10"
     inkscape:pageopacity="0"
     inkscape:pageshadow="2"
     inkscape:window-width="1366"
     inkscape:window-height="744"
     id="namedview83"
     showgrid="false"
     inkscape:zoom="0.95567836"
     inkscape:cx="163.40608"
     inkscape:cy="205.82299"
     inkscape:window-x="0"
     inkscape:window-y="24"
     inkscape:window-maximized="1"
     inkscape:current-layer="Calque_1" /><g
     style="fill:#ffffff;fill-opacity:1"
     id="g5"
     transform="translate(1.0829924,27.014722)"><path
       inkscape:connector-curvature="0"
       style="fill:#ffffff;fill-opacity:1"
       id="path7"
       d="m 325.37,298.917 c -2.586,4.525 -6.896,6.68 -12.5,8.62 -0.865,2.351 2.177,16.075 4.925,27.334 l 0,0 c 0,0 12.648,1.817 21.969,4.688 -4.885,-13.337 -11.439,-31.509 -14.394,-40.642 z" /><path
       inkscape:connector-curvature="0"
       style="fill:#ffffff;fill-opacity:1"
       id="path9"
       d="m 310.726,347.259 -6.099,-33.257 4.517,33.233 c 0.567,0.008 1.093,0.017 1.582,0.024 z" /><g
       style="fill:#ffffff;fill-opacity:1"
       id="g11"><path
         inkscape:connector-curvature="0"
         style="fill:#ffffff;fill-opacity:1"
         id="path13"
         d="m 142.495,358.184 c 0,0 1.136,-0.064 3.265,-0.185 2.129,-0.105 5.251,-0.333 9.226,-0.477 3.974,-0.168 8.8,-0.371 14.335,-0.604 5.536,-0.242 11.781,-0.508 18.594,-0.687 6.813,-0.216 14.194,-0.439 22,-0.586 7.807,-0.171 16.039,-0.373 24.555,-0.456 8.517,-0.086 17.317,-0.287 26.259,-0.289 8.942,-0.037 18.026,-0.076 27.11,-0.114 9.084,0.039 18.168,0.079 27.11,0.118 8.942,0.014 17.743,0.204 26.259,0.293 8.517,0.082 16.749,0.292 24.556,0.458 7.807,0.145 15.188,0.374 22.001,0.585 6.813,0.177 13.058,0.447 18.594,0.685 5.535,0.232 10.361,0.435 14.336,0.601 3.974,0.144 7.097,0.37 9.226,0.475 2.129,0.12 3.265,0.184 3.265,0.184 l 0,0.4 c 0,0 -72.673,0.1 -145.345,0.199 -72.672,-0.1 -145.345,-0.199 -145.345,-0.199 l 0,-0.401 z" /></g><path
       inkscape:connector-curvature="0"
       style="fill:#ffffff;fill-opacity:1"
       id="path15"
       d="m 202.826,358.384 c 16.063,0 12.92,-11.175 15.364,-17.46 2.444,-6.286 24.618,-61.633 32.3,-85.377 4.19,7.333 11.175,10.824 20.254,13.967 0.002,0.006 0.003,0.013 0.005,0.019 1.624,-1.628 3.218,-3.138 4.752,-4.511 3.163,-2.829 6.075,-5.083 8.49,-6.622 0.65,-0.414 1.263,-0.829 1.847,-1.245 14.92,-10.614 9.036,-21.49 9.036,-21.49 0,0 -8.29,-3.383 -13.031,2.52 -0.346,0.464 -1.692,0.206 -2.982,-0.614 -1.934,-1.229 -3.741,-3.723 -1.867,-6.953 0,0 -5.972,-0.988 -7.334,-9.587 0.002,-0.003 0.004,-0.006 0.006,-0.009 0.005,-0.01 0.011,-0.019 0.017,-0.028 0.392,-0.745 0.984,-1.314 1.717,-1.793 3.224,-2.107 2.618,-2.933 5.595,-8.962 10e-4,-0.002 10e-4,-0.003 0.002,-0.005 0.167,-0.337 0.34,-0.634 0.518,-0.895 0,0 0.057,-0.184 0.173,-0.516 1.075,-3.056 0.816,-12.916 17.515,-13.771 l 0,-0.041 c 0,0 0.119,0.01 0.336,0.023 1.081,-0.043 2.205,-0.023 3.374,0.064 6.102,-0.084 17.748,-1.301 19.387,-9.22 0,0 -0.577,7.229 -3.311,13.993 -0.57,1.409 -1.232,2.797 -2.004,4.097 -1.109,1.868 -2.444,3.548 -4.045,4.837 l 6.9,-4.629 c 0,0 14.384,10.699 16.64,24.973 0.338,2.137 0.406,4.351 0.111,6.623 4.656,3.935 17.479,19.432 8.895,46.738 -0.488,1.552 -1.041,3.141 -1.674,4.77 -2.154,8.189 3.019,26.076 7.112,42.671 4.095,16.595 7.637,27.572 9.792,28.434 l 0.926,0 c 1.022,-0.069 2.016,-0.303 2.74,0 1.948,-0.41 4.155,-0.224 6.321,0 l 7.123,0 c 11.523,-3.492 6.744,-13.27 4.998,-15.016 -1.746,-1.746 -1.048,-8.381 -0.35,-10.825 31.53,-46.545 -15.186,-109.877 -46.653,-138.028 -5.125,-4.584 -9.845,-8.235 -13.757,-10.729 -1.053,-0.671 -2.045,-1.344 -2.991,-2.018 -24.177,-17.199 -14.644,-34.822 -14.644,-34.822 0,0 24.095,3.919 31.777,13.482 0.559,0.754 2.74,0.336 4.831,-0.994 3.133,-1.992 6.063,-6.031 3.025,-11.266 0,0 20.206,-2.344 22.412,-16.275 -0.003,-0.005 -0.006,-0.01 -0.009,-0.015 -0.008,-0.017 -0.019,-0.03 -0.027,-0.047 -0.635,-1.206 -1.596,-2.129 -2.781,-2.904 -5.226,-3.417 -14.772,-4.011 -19.595,-13.78 -0.001,-0.002 -0.002,-0.004 -0.003,-0.006 -0.271,-0.547 -0.551,-1.027 -0.84,-1.45 0,0 -0.09,-0.299 -0.278,-0.835 -2.343,-6.654 -20.021,-50.213 -73.257,-22.828 l 15.015,15.451 -14.237,-9.555 c 0,0 -23.307,17.337 -26.962,40.465 -0.546,3.461 -0.657,7.05 -0.18,10.73 -7.545,6.377 -28.322,31.486 -14.412,75.732 0.791,2.515 1.688,5.088 2.711,7.727 3.492,13.27 -4.889,42.253 -11.523,69.141 -6.635,26.889 -12.222,41.903 -15.713,43.3 -15.016,1.396 -13.619,15.365 -13.619,15.365 0,0 -0.001,-10e-4 16.062,-10e-4 z" /><g
       style="fill:#ffffff;fill-opacity:1"
       id="g17"><defs
         id="defs19"><rect
           height="83.621002"
           width="96.028999"
           y="274.763"
           x="218.258"
           id="SVGID_1_" /></defs><clipPath
         id="SVGID_2_"><use
           height="100%"
           width="100%"
           y="0"
           x="0"
           style="overflow:visible"
           id="use23"
           overflow="visible"
           xlink:href="#SVGID_1_" /></clipPath><path
         inkscape:connector-curvature="0"
         style="fill:#ffffff;fill-opacity:1"
         id="path25"
         d="m 277.695,318.673 c 0,0 0.133,0.077 0.335,0.25 0.203,0.17 0.477,0.438 0.749,0.808 0.137,0.186 0.282,0.391 0.401,0.629 0.137,0.229 0.242,0.492 0.35,0.766 0.078,0.282 0.193,0.572 0.228,0.884 0.021,0.156 0.041,0.313 0.061,0.471 0.012,0.159 0.002,0.32 0.002,0.48 0.007,0.322 -0.063,0.639 -0.123,0.948 -0.051,0.312 -0.204,0.59 -0.298,0.87 -0.111,0.274 -0.285,0.508 -0.42,0.737 -0.128,0.236 -0.326,0.404 -0.473,0.58 -0.154,0.172 -0.293,0.328 -0.448,0.435 -0.146,0.116 -0.278,0.209 -0.386,0.286 -0.216,0.151 -0.962,0.145 -0.962,0.145 0,0 0.066,-0.141 0.19,-0.369 0.063,-0.113 0.137,-0.251 0.229,-0.399 0.1,-0.145 0.169,-0.334 0.264,-0.521 0.046,-0.095 0.093,-0.193 0.142,-0.296 0.053,-0.1 0.105,-0.201 0.139,-0.315 0.072,-0.226 0.173,-0.45 0.244,-0.69 0.05,-0.246 0.136,-0.49 0.165,-0.747 0.026,-0.258 0.087,-0.514 0.072,-0.777 0.002,-0.131 0.016,-0.263 0.009,-0.394 l -0.03,-0.391 c -0.015,-0.26 -0.068,-0.516 -0.106,-0.766 -0.072,-0.243 -0.104,-0.492 -0.183,-0.717 -0.066,-0.229 -0.139,-0.443 -0.209,-0.645 -0.146,-0.397 -0.283,-0.735 -0.389,-0.97 -0.102,-0.237 -0.17,-0.374 -0.17,-0.374 0.374,-5.511 -3.081,-7.191 -4.779,-8.873 -3.752,-16.623 6.181,-27.456 6.181,-27.456 -12.327,8.965 -12.327,26.71 -12.327,26.71 0,0 0,0 -1.495,-0.094 -0.223,-9.416 -13.097,-19.006 -18.396,-22.561 2.91,3.252 4.101,10.801 4.481,13.314 0.468,3.082 7.472,15.783 7.378,16.063 -5.323,3.735 -3.082,9.899 -3.176,11.301 0,0 -2.977,4.026 -2.833,11.469 0.035,1.865 0.265,3.941 0.789,6.227 -0.461,4.709 -3.43,7.268 -4.307,7.894 -0.261,0.169 -0.506,0.331 -0.742,0.488 -0.001,0.001 -0.001,0.001 -0.001,0.001 -2.542,1.131 -8.339,4.679 -2.134,4.804 l 0.004,-0.004 c 4.899,0.6 7.29,-0.235 8.384,-1.834 2.521,-5.229 7.284,-10.179 7.751,-8.872 0.468,1.308 -0.84,5.23 -4.763,9.62 -3.922,4.389 -2.615,4.949 3.456,5.416 6.07,0.467 5.229,-3.829 4.575,-4.203 -0.653,-0.373 1.774,-3.081 3.27,-4.669 1.47,-1.563 8.907,0.763 11.368,0.837 0.136,-0.219 0.289,-0.428 0.456,-0.619 0.106,-0.113 0.207,-0.24 0.327,-0.34 0.117,-0.104 0.23,-0.217 0.354,-0.314 0.244,-0.197 0.495,-0.389 0.765,-0.549 0.261,-0.179 0.542,-0.312 0.815,-0.468 0.28,-0.135 0.567,-0.258 0.854,-0.38 l 0.436,-0.164 c 0.123,-0.043 0.243,-0.092 0.367,-0.132 -0.248,-0.228 -0.477,-0.476 -0.697,-0.731 -0.221,-0.255 -0.416,-0.531 -0.595,-0.818 -0.174,-0.289 -0.339,-0.584 -0.472,-0.895 -0.073,-0.151 -0.119,-0.315 -0.18,-0.472 -0.061,-0.157 -0.103,-0.319 -0.146,-0.481 -0.047,-0.16 -0.082,-0.323 -0.104,-0.49 -0.022,-0.164 -0.058,-0.327 -0.07,-0.492 -0.025,-0.331 -0.034,-0.659 -0.009,-0.986 0.008,-0.163 0.024,-0.324 0.054,-0.485 l 0.091,-0.477 c 0.067,0.319 0.089,0.634 0.172,0.94 0.037,0.152 0.059,0.307 0.103,0.456 0.045,0.149 0.093,0.296 0.131,0.444 0.041,0.146 0.103,0.289 0.152,0.433 0.046,0.144 0.116,0.28 0.175,0.419 0.059,0.14 0.116,0.277 0.191,0.409 0.073,0.131 0.132,0.269 0.217,0.393 0.083,0.125 0.147,0.259 0.233,0.382 0.086,0.122 0.165,0.248 0.255,0.366 0.181,0.236 0.371,0.465 0.567,0.688 0.4,0.441 0.849,0.834 1.323,1.202 l 0.843,0.653 -1.024,0.26 c -0.568,0.143 -1.132,0.295 -1.69,0.465 -0.549,0.189 -1.1,0.381 -1.622,0.631 -0.264,0.12 -0.518,0.256 -0.772,0.396 -0.126,0.069 -0.243,0.152 -0.367,0.229 -0.125,0.074 -0.234,0.167 -0.355,0.249 -0.235,0.171 -0.449,0.368 -0.655,0.577 -0.103,0.106 -0.194,0.22 -0.286,0.338 -0.081,0.112 -0.164,0.229 -0.223,0.358 -1.466,3.615 3.948,2.743 7.138,2.743 0.323,0 0.617,-0.018 0.897,-0.042 3.87,-0.242 6.029,-1.584 7.172,-3.288 2.354,-3.509 0.429,-8.531 0.429,-8.531 6.813,-24.654 -16.102,-27.186 -17.317,-27.373 z"
         clip-path="url(#SVGID_2_)" /></g></g></svg>