<?xml version="1.0" encoding="UTF-8" standalone="no"?>
<svg
   xmlns:dc="http://purl.org/dc/elements/1.1/"
   xmlns:cc="http://creativecommons.org/ns#"
   xmlns:rdf="http://www.w3.org/1999/02/22-rdf-syntax-ns#"
   xmlns:svg="http://www.w3.org/2000/svg"
   xmlns="http://www.w3.org/2000/svg"
   xmlns:xlink="http://www.w3.org/1999/xlink"
   xml:space="preserve"
   enable-background="new 0 0 577.847 493.89"
   viewBox="0 0 577.847 493.89"
   height="493.89px"
   width="577.847px"
   y="0px"
   x="0px"
   id="Calque_1"
   version="1.1"><metadata
     id="metadata87"><rdf:RDF><cc:Work
         rdf:about=""><dc:format>image/svg+xml</dc:format><dc:type
           rdf:resource="http://purl.org/dc/dcmitype/StillImage" /><dc:title></dc:title></cc:Work></rdf:RDF></metadata><defs
     id="defs85" /><g
     style="fill:#4b4b4b;fill-opacity:1"
     id="g3"><path
       style="fill:#4b4b4b;fill-opacity:1"
       id="path5"
       d="M128.603,289.675c-1.396,2.441-3.721,3.604-6.745,4.65c-0.467,1.27,1.175,8.674,2.657,14.75l0,0   c0,0,6.825,0.98,11.854,2.529C133.734,304.408,130.198,294.603,128.603,289.675z"
       fill="#FFFFFF" /><path
       style="fill:#4b4b4b;fill-opacity:1"
       id="path7"
       d="M120.701,315.759l-3.292-17.944l2.437,17.932C120.153,315.751,120.438,315.755,120.701,315.759z"
       fill="#FFFFFF" /><g
       style="fill:#4b4b4b;fill-opacity:1"
       id="g9"><path
         style="fill:#4b4b4b;fill-opacity:1"
         id="path11"
         d="M29.924,321.563c0,0,2.023-0.064,5.817-0.185c3.794-0.105,9.358-0.333,16.44-0.477    c7.082-0.168,15.682-0.371,25.546-0.604c4.932-0.117,10.18-0.241,15.713-0.372c5.533-0.128,11.35-0.177,17.42-0.275    c12.141-0.176,25.293-0.366,39.204-0.566c13.911-0.201,28.581-0.457,43.756-0.47c30.352-0.143,62.727-0.295,95.101-0.446    c32.375,0.153,64.75,0.308,95.102,0.451c15.176,0.011,29.846,0.284,43.757,0.476c13.91,0.199,27.063,0.389,39.203,0.563    c6.07,0.1,11.888,0.143,17.421,0.278c5.533,0.13,10.781,0.254,15.713,0.369c9.864,0.232,18.464,0.435,25.546,0.601    c7.082,0.144,12.646,0.37,16.44,0.475c3.794,0.12,5.817,0.184,5.817,0.184v0.4c0,0-129.499,0.1-258.999,0.199    c-129.499-0.1-258.999-0.199-258.999-0.199V321.563z"
         fill="#FFFFFF" /></g><path
       style="fill:#4b4b4b;fill-opacity:1"
       id="path13"
       d="M62.479,321.763c8.667,0,6.972-6.03,8.291-9.422s13.284-33.256,17.429-46.069   c2.261,3.958,6.029,5.841,10.929,7.537c0.001,0.003,0.001,0.007,0.002,0.01c0.876-0.879,1.736-1.692,2.564-2.434   c1.707-1.526,3.278-2.742,4.581-3.573c0.351-0.224,0.681-0.447,0.996-0.672c8.051-5.728,4.876-11.596,4.876-11.596   s-4.474-1.826-7.032,1.359c-0.186,0.25-0.913,0.11-1.608-0.331c-1.044-0.664-2.02-2.01-1.008-3.753c0,0-3.222-0.533-3.957-5.173   c0.001-0.001,0.002-0.004,0.003-0.004c0.002-0.006,0.006-0.011,0.008-0.017c0.211-0.401,0.532-0.708,0.927-0.967   c1.74-1.138,1.413-1.583,3.019-4.836c0.001,0,0.001-0.001,0.001-0.002c0.09-0.183,0.183-0.342,0.279-0.483   c0,0,0.03-0.099,0.093-0.278c0.58-1.649,0.44-6.969,9.451-7.431v-0.022c0,0,0.064,0.006,0.181,0.013   c0.584-0.022,1.19-0.013,1.821,0.035c3.292-0.045,9.577-0.702,10.461-4.976c0,0-0.312,3.901-1.787,7.552   c-0.307,0.76-0.665,1.509-1.081,2.21c-0.599,1.008-1.319,1.914-2.182,2.61l3.723-2.498c0,0,7.761,5.773,8.978,13.476   c0.183,1.152,0.219,2.347,0.061,3.573c2.512,2.123,9.431,10.485,4.799,25.22c-0.264,0.837-0.562,1.694-0.903,2.573   c-1.163,4.419,1.628,14.07,3.837,23.025c2.209,8.954,4.121,14.877,5.284,15.343h0.5c0.552-0.037,1.088-0.164,1.479,0   c1.051-0.222,2.242-0.12,3.411,0h3.843c6.218-1.885,3.639-7.16,2.697-8.104c-0.942-0.942-0.565-4.521-0.188-5.84   c17.014-25.116-8.194-59.289-25.174-74.479c-2.765-2.474-5.313-4.444-7.423-5.79c-0.568-0.362-1.104-0.725-1.614-1.089   c-13.045-9.28-7.901-18.79-7.901-18.79s13.001,2.115,17.146,7.276c0.302,0.406,1.479,0.18,2.607-0.536   c1.691-1.076,3.271-3.255,1.633-6.08c0,0,10.903-1.265,12.093-8.781c-0.001-0.003-0.003-0.006-0.005-0.009   c-0.004-0.009-0.01-0.017-0.015-0.025c-0.343-0.65-0.861-1.148-1.5-1.567c-2.82-1.843-7.971-2.163-10.573-7.435   c0-0.002-0.001-0.002-0.001-0.004c-0.146-0.295-0.297-0.555-0.453-0.782c0,0-0.049-0.161-0.15-0.45   c-1.264-3.592-10.803-27.096-39.529-12.319l8.103,8.338l-7.683-5.154c0,0-12.576,9.354-14.548,21.834   c-0.295,1.867-0.355,3.804-0.097,5.79c-4.071,3.44-15.283,16.99-7.777,40.863c0.427,1.358,0.911,2.746,1.463,4.171   c1.884,7.159-2.638,22.799-6.218,37.308s-6.595,22.61-8.479,23.364c-8.103,0.754-7.349,8.291-7.349,8.291   S53.811,321.763,62.479,321.763z"
       fill="#FFFFFF" /><g
       style="fill:#4b4b4b;fill-opacity:1"
       id="g15"><defs
         id="defs17"><rect
           height="45.122"
           width="51.816"
           y="276.641"
           x="70.806"
           id="SVGID_1_" /></defs><clipPath
         id="SVGID_2_"><use
           id="use21"
           overflow="visible"
           xlink:href="#SVGID_1_" /></clipPath><path
         style="fill:#4b4b4b;fill-opacity:1"
         id="path23"
         d="M102.878,300.335c0,0,0.071,0.041,0.18,0.134    c0.11,0.093,0.258,0.236,0.404,0.437c0.074,0.101,0.152,0.211,0.217,0.339c0.074,0.123,0.13,0.267,0.188,0.414    c0.042,0.151,0.104,0.309,0.123,0.478c0.011,0.083,0.022,0.169,0.033,0.253c0.006,0.086,0.001,0.172,0.001,0.259    c0.003,0.174-0.034,0.345-0.066,0.512c-0.027,0.168-0.111,0.319-0.161,0.47c-0.06,0.148-0.154,0.273-0.227,0.397    c-0.068,0.128-0.176,0.219-0.255,0.313c-0.083,0.093-0.158,0.177-0.242,0.234c-0.079,0.063-0.15,0.112-0.208,0.154    c-0.117,0.082-0.519,0.078-0.519,0.078s0.036-0.076,0.103-0.198c0.034-0.062,0.074-0.137,0.124-0.217    c0.053-0.077,0.09-0.18,0.142-0.281c0.024-0.051,0.05-0.104,0.077-0.159c0.028-0.054,0.057-0.108,0.075-0.17    c0.039-0.123,0.093-0.244,0.131-0.373c0.027-0.132,0.073-0.265,0.089-0.402c0.014-0.14,0.047-0.278,0.039-0.42    c0-0.071,0.008-0.142,0.004-0.213l-0.016-0.211c-0.008-0.14-0.037-0.278-0.058-0.413c-0.039-0.131-0.056-0.265-0.098-0.386    c-0.036-0.123-0.075-0.24-0.113-0.349c-0.08-0.214-0.153-0.396-0.21-0.523c-0.055-0.128-0.091-0.202-0.091-0.202    c0.202-2.973-1.663-3.879-2.579-4.786c-2.024-8.971,3.335-14.816,3.335-14.816c-6.652,4.838-6.652,14.413-6.652,14.413    s0,0-0.806-0.052c-0.12-5.079-7.067-10.255-9.927-12.173c1.57,1.756,2.212,5.828,2.418,7.185c0.252,1.664,4.031,8.517,3.981,8.668    c-2.872,2.016-1.663,5.342-1.713,6.098c0,0-1.606,2.173-1.529,6.188c0.02,1.007,0.143,2.127,0.426,3.359    c-0.249,2.541-1.85,3.923-2.323,4.26c-0.141,0.092-0.273,0.179-0.401,0.264h0c-1.372,0.61-4.499,2.524-1.151,2.592l0.002-0.001    c2.644,0.323,3.934-0.127,4.523-0.99c1.36-2.822,3.931-5.492,4.183-4.787c0.252,0.705-0.453,2.822-2.57,5.19    c-2.116,2.368-1.411,2.671,1.865,2.923c3.275,0.252,2.822-2.066,2.469-2.268c-0.354-0.202,0.957-1.663,1.764-2.52    c0.793-0.844,4.806,0.412,6.134,0.451c0.073-0.118,0.156-0.23,0.246-0.333c0.058-0.063,0.112-0.131,0.177-0.185    c0.063-0.057,0.125-0.116,0.191-0.169c0.132-0.106,0.268-0.211,0.413-0.297c0.141-0.096,0.292-0.168,0.44-0.253    c0.151-0.071,0.306-0.139,0.461-0.204l0.235-0.088c0.066-0.024,0.131-0.051,0.198-0.072c-0.134-0.122-0.258-0.257-0.376-0.395    c-0.119-0.137-0.224-0.287-0.321-0.441c-0.094-0.156-0.183-0.315-0.255-0.482c-0.04-0.082-0.064-0.17-0.096-0.255    c-0.034-0.084-0.056-0.172-0.079-0.26c-0.025-0.086-0.044-0.175-0.057-0.265c-0.013-0.089-0.031-0.176-0.038-0.266    c-0.014-0.179-0.019-0.355-0.005-0.532c0.004-0.088,0.013-0.175,0.029-0.262l0.049-0.258c0.036,0.173,0.048,0.343,0.093,0.508    c0.02,0.083,0.032,0.166,0.056,0.246c0.023,0.081,0.05,0.16,0.07,0.24c0.022,0.079,0.055,0.156,0.083,0.233    c0.025,0.078,0.062,0.151,0.094,0.226c0.032,0.075,0.063,0.15,0.103,0.222c0.04,0.07,0.071,0.145,0.118,0.211    c0.044,0.068,0.08,0.141,0.125,0.207c0.046,0.065,0.089,0.133,0.138,0.197c0.098,0.127,0.2,0.251,0.306,0.371    c0.216,0.238,0.458,0.45,0.714,0.649l0.454,0.353l-0.552,0.14c-0.307,0.078-0.611,0.16-0.912,0.251    c-0.296,0.102-0.593,0.205-0.875,0.34c-0.142,0.065-0.279,0.139-0.417,0.214c-0.069,0.038-0.132,0.083-0.199,0.124    c-0.067,0.041-0.126,0.09-0.192,0.135c-0.126,0.092-0.242,0.198-0.354,0.312c-0.055,0.058-0.105,0.118-0.154,0.183    c-0.044,0.061-0.089,0.123-0.121,0.192c-0.791,1.95,2.13,1.481,3.852,1.481c0.174,0,0.333-0.01,0.483-0.023    c2.089-0.131,3.254-0.854,3.871-1.774c1.27-1.894,0.231-4.604,0.231-4.604C115.898,301.801,103.533,300.436,102.878,300.335z"
         fill="#FFFFFF"
         clip-path="url(#SVGID_2_)" /></g><g
       style="fill:#4b4b4b;fill-opacity:1"
       id="g25"><g
         style="fill:#4b4b4b;fill-opacity:1"
         id="g27"><path
           style="fill:#4b4b4b;fill-opacity:1"
           id="path29"
           d="M186.449,245.226v21.643h-1.967v-20.093l-1.282,0.357c-0.625,0.209-1.252,0.358-1.252,0.328v-0.864     c0.03,0,1.401-0.896,2.057-1.371H186.449z"
           fill="#FFFFFF" /><path
           style="fill:#4b4b4b;fill-opacity:1"
           id="path31"
           d="M207.437,265.438v1.431h-14.608c0.149-6.142,3.279-8.258,8.049-10.732h-0.03     c2.862-1.4,3.995-3.249,3.995-5.276c0-2.116-1.431-4.084-4.859-4.232c-2.772,0-4.174,1.52-4.829,2.325     c-0.566-0.447-0.924-0.775-1.491-1.163c1.043-1.341,3.428-2.563,6.29-2.563c4.68,0,6.797,2.593,6.797,5.634     c0,2.862-1.639,5.246-5.336,7.035c-3.19,1.581-5.962,3.846-6.111,7.543H207.437z"
           fill="#FFFFFF" /><path
           style="fill:#4b4b4b;fill-opacity:1"
           id="path33"
           d="M210.984,248.833v-1.611c1.879-0.953,4.323-2.025,7.423-2.025c3.578,0,6.917,1.37,6.917,4.947     c0,2.714-1.103,4.501-3.875,5.247c2.891,0.715,5.276,1.849,5.276,5.455c0,3.459-3.368,6.529-9.002,6.529     c-4.173,0-6.499-0.775-7.304-1.162v-1.581c2.295,1.044,4.71,1.461,7.125,1.461c5.217,0,6.678-3.518,6.678-5.247     c0-2.146-2.057-4.62-5.993-4.62h-2.563v-1.431h2.563c3.846,0,4.83-2.058,4.83-4.204c0-1.908-1.312-3.964-4.651-3.964     C215.605,246.627,212.565,248.027,210.984,248.833z"
           fill="#FFFFFF" /><path
           style="fill:#4b4b4b;fill-opacity:1"
           id="path35"
           d="M247.326,266.868h-2.892l-7.781-21.315h2.087l7.154,19.944l7.155-19.944h2.355L247.326,266.868z"
           fill="#FFFFFF" /><path
           style="fill:#4b4b4b;fill-opacity:1"
           id="path37"
           d="M259.191,245.583h12.372v1.252h-10.494v8.556h7.781v1.282h-7.781v8.913h11.208v1.282h-13.087V245.583z"
           fill="#FFFFFF" /><path
           style="fill:#4b4b4b;fill-opacity:1"
           id="path39"
           d="M291.834,246.805h-7.959v20.063h-1.998v-20.063h-8.198v-1.281h18.155V246.805z"
           fill="#FFFFFF" /><path
           style="fill:#4b4b4b;fill-opacity:1"
           id="path41"
           d="M315.506,256.256c0,6.319-3.131,11.208-11.18,11.208c-8.199,0-11.149-4.501-11.239-11.208     c0-7.304,4.113-11.06,11.239-11.18C312.107,245.196,315.506,248.952,315.506,256.256z M304.326,266.123     c1.223,0,9.182-0.03,9.182-9.897c0-10.017-7.988-9.838-9.213-9.838c-1.43,0-8.882,0.061-8.882,9.838     C295.413,266.45,302.895,266.123,304.326,266.123z"
           fill="#FFFFFF" /></g><g
         style="fill:#4b4b4b;fill-opacity:1"
         id="g43"><path
           style="fill:#4b4b4b;fill-opacity:1"
           id="path45"
           d="M198.612,280.473v1.818c-1.818-0.865-3.667-1.551-5.724-1.551c-0.477,0-8.138,0.18-8.496,9.957     c0.119,9.867,7.691,9.688,8.496,9.688c2.415,0,4.353-1.043,5.933-2.325v2.058c-0.924,0.626-3.041,1.788-5.933,1.788     c-7.065,0-10.851-5.037-10.941-11.18c0-7.303,4.919-11.238,10.941-11.238C194.916,279.488,196.913,279.966,198.612,280.473z"
           fill="#FFFFFF" /><path
           style="fill:#4b4b4b;fill-opacity:1"
           id="path47"
           d="M216.291,299.938v1.343h-13.028v-21.315h1.968v19.198c0,0.805-0.03,0.774,0.656,0.774H216.291z"
           fill="#FFFFFF" /><path
           style="fill:#4b4b4b;fill-opacity:1"
           id="path49"
           d="M219.481,279.966h1.908v21.315h-1.908V279.966z"
           fill="#FFFFFF" /><path
           style="fill:#4b4b4b;fill-opacity:1"
           id="path51"
           d="M226.845,279.994h2.832l11.835,19.021v-19.021h1.968v21.287h-2.236l-12.491-20.064v20.064h-1.908V279.994     z"
           fill="#FFFFFF" /><path
           style="fill:#4b4b4b;fill-opacity:1"
           id="path53"
           d="M248.399,279.966h1.908v21.315h-1.908V279.966z"
           fill="#FFFFFF" /><path
           style="fill:#4b4b4b;fill-opacity:1"
           id="path55"
           d="M276.868,290.757c0,6.022-2.862,10.644-10.523,11.21v0.983c0,2.921,2.355,4.023,3.786,4.173v0.328     c-4.799-0.238-5.306-3.458-5.306-4.531v-0.953c-7.572-0.566-10.285-5.039-10.374-11.21c0-7.304,4.113-11.061,11.238-11.18     C273.47,279.696,276.868,283.453,276.868,290.757z M265.689,300.625c1.222,0,9.152-0.03,9.152-9.898     c0-10.016-7.93-9.837-9.182-9.837c-1.431,0-8.884,0.061-8.884,9.837C256.775,300.953,264.258,300.625,265.689,300.625z"
           fill="#FFFFFF" /><path
           style="fill:#4b4b4b;fill-opacity:1"
           id="path57"
           d="M296.694,279.966v12.191c0,3.221,0.089,9.511-8.168,9.511c-8.377,0-8.407-6.319-8.407-9.748v-11.954     h1.938v12.191c0,1.878,0.03,8.109,6.469,8.109c6.291,0,6.291-6.171,6.291-8.109v-12.191H296.694z"
           fill="#FFFFFF" /><path
           style="fill:#4b4b4b;fill-opacity:1"
           id="path59"
           d="M301.703,279.994h12.371v1.254H303.58v8.556h7.781v1.281h-7.781v8.913h11.211v1.283h-13.088V279.994z"
           fill="#FFFFFF" /><path
           style="fill:#4b4b4b;fill-opacity:1"
           id="path61"
           d="M335.539,301.281h-2.891l-7.781-21.315h2.086l7.156,19.943l7.154-19.943h2.354L335.539,301.281z"
           fill="#FFFFFF" /><path
           style="fill:#4b4b4b;fill-opacity:1"
           id="path63"
           d="M347.404,279.994h12.371v1.254h-10.492v8.556h7.781v1.281h-7.781v8.913h11.209v1.283h-13.088V279.994z      M355.424,273.287l-2.922,3.816h-1.818l1.699-3.816H355.424z"
           fill="#FFFFFF" /><path
           style="fill:#4b4b4b;fill-opacity:1"
           id="path65"
           d="M380.049,281.217h-7.959v20.064h-1.998v-20.064h-8.199v-1.281h18.156V281.217z"
           fill="#FFFFFF" /><path
           style="fill:#4b4b4b;fill-opacity:1"
           id="path67"
           d="M382.701,279.994h12.373v1.254H384.58v8.556h7.781v1.281h-7.781v8.913h11.209v1.283h-13.088V279.994z      M390.721,273.287l-2.922,3.816h-1.818l1.699-3.816H390.721z"
           fill="#FFFFFF" /><path
           style="fill:#4b4b4b;fill-opacity:1"
           id="path69"
           d="M406.73,279.966c4.83,0,7.064,2.176,7.064,5.098c0,3.338-2.563,4.888-4.621,5.127     c2.059,0.478,2.654,1.878,3.279,3.428l3.072,7.663h-1.967c-2.387-6.023-3.252-8.199-3.4-8.526     c-0.596-1.283-1.371-1.849-2.713-1.849h-5.992v10.375h-1.877v-21.315H406.73z M406.73,289.445c3.965,0,5.037-2.355,5.037-4.114     c0-1.878-1.281-4.054-5.037-4.054h-5.277v8.168H406.73z"
           fill="#FFFFFF" /><path
           style="fill:#4b4b4b;fill-opacity:1"
           id="path71"
           d="M419.639,279.966h1.908v21.315h-1.908V279.966z"
           fill="#FFFFFF" /><path
           style="fill:#4b4b4b;fill-opacity:1"
           id="path73"
           d="M427.002,279.994h2.834l11.834,19.021v-19.021h1.967v21.287H441.4l-12.49-20.064v20.064h-1.908V279.994z"
           fill="#FFFFFF" /><path
           style="fill:#4b4b4b;fill-opacity:1"
           id="path75"
           d="M454.221,279.966h3.07l7.482,21.315h-2.205l-2.684-8.109h-8.705l-3.309,8.109h-2.057L454.221,279.966z      M455.711,280.95l-4.234,10.97h8.021L455.711,280.95z"
           fill="#FFFFFF" /><path
           style="fill:#4b4b4b;fill-opacity:1"
           id="path77"
           d="M467.965,279.966h1.906v21.315h-1.906V279.966z"
           fill="#FFFFFF" /><path
           style="fill:#4b4b4b;fill-opacity:1"
           id="path79"
           d="M482.512,279.966c4.828,0,7.064,2.176,7.064,5.098c0,3.338-2.563,4.888-4.619,5.127     c2.057,0.478,2.652,1.878,3.279,3.428l3.07,7.663h-1.969c-2.383-6.023-3.248-8.199-3.398-8.526     c-0.596-1.283-1.371-1.849-2.711-1.849h-5.992v10.375h-1.879v-21.315H482.512z M482.512,289.445c3.965,0,5.039-2.355,5.039-4.114     c0-1.878-1.283-4.054-5.039-4.054h-5.275v8.168H482.512z"
           fill="#FFFFFF" /><path
           style="fill:#4b4b4b;fill-opacity:1"
           id="path81"
           d="M495.152,279.994h12.371v1.254h-10.494v8.556h7.781v1.281h-7.781v8.913h11.209v1.283h-13.086V279.994z"
           fill="#FFFFFF" /></g></g></g></svg>