<?xml version="1.0" encoding="utf-8"?>
<!-- Generator: Adobe Illustrator 16.0.0, SVG Export Plug-In . SVG Version: 6.00 Build 0)  -->
<!DOCTYPE svg PUBLIC "-//W3C//DTD SVG 1.1//EN" "http://www.w3.org/Graphics/SVG/1.1/DTD/svg11.dtd">
<svg version="1.1" id="Calque_1" xmlns="http://www.w3.org/2000/svg" xmlns:xlink="http://www.w3.org/1999/xlink" x="0px" y="0px"
	 width="577.847px" height="493.89px" viewBox="0 0 577.847 493.89" enable-background="new 0 0 577.847 493.89"
	 xml:space="preserve">
<g>
	<g>
		<path fill="#FFFFFF" d="M325.37,298.917c-2.586,4.525-6.896,6.68-12.5,8.62c-0.865,2.351,2.177,16.075,4.925,27.334l0,0
			c0,0,12.648,1.817,21.969,4.688C334.879,326.222,328.325,308.05,325.37,298.917z"/>
		<path fill="#FFFFFF" d="M310.726,347.259l-6.099-33.257l4.517,33.233C309.711,347.243,310.237,347.252,310.726,347.259z"/>
		<g>
			<path fill="#FFFFFF" d="M142.495,358.184c0,0,1.136-0.064,3.265-0.185c2.129-0.105,5.251-0.333,9.226-0.477
				c3.974-0.168,8.8-0.371,14.335-0.604c5.536-0.242,11.781-0.508,18.594-0.687c6.813-0.216,14.194-0.439,22-0.586
				c7.807-0.171,16.039-0.373,24.555-0.456c8.517-0.086,17.317-0.287,26.259-0.289c8.942-0.037,18.026-0.076,27.11-0.114
				c9.084,0.039,18.168,0.079,27.11,0.118c8.942,0.014,17.743,0.204,26.259,0.293c8.517,0.082,16.749,0.292,24.556,0.458
				c7.807,0.145,15.188,0.374,22.001,0.585c6.813,0.177,13.058,0.447,18.594,0.685c5.535,0.232,10.361,0.435,14.336,0.601
				c3.974,0.144,7.097,0.37,9.226,0.475c2.129,0.12,3.265,0.184,3.265,0.184v0.4c0,0-72.673,0.1-145.345,0.199
				c-72.672-0.1-145.345-0.199-145.345-0.199V358.184z"/>
		</g>
		<path fill="#FFFFFF" d="M202.826,358.384c16.063,0,12.92-11.175,15.364-17.46c2.444-6.286,24.618-61.633,32.3-85.377
			c4.19,7.333,11.175,10.824,20.254,13.967c0.002,0.006,0.003,0.013,0.005,0.019c1.624-1.628,3.218-3.138,4.752-4.511
			c3.163-2.829,6.075-5.083,8.49-6.622c0.65-0.414,1.263-0.829,1.847-1.245c14.92-10.614,9.036-21.49,9.036-21.49
			s-8.29-3.383-13.031,2.52c-0.346,0.464-1.692,0.206-2.982-0.614c-1.934-1.229-3.741-3.723-1.867-6.953
			c0,0-5.972-0.988-7.334-9.587c0.002-0.003,0.004-0.006,0.006-0.009c0.005-0.01,0.011-0.019,0.017-0.028
			c0.392-0.745,0.984-1.314,1.717-1.793c3.224-2.107,2.618-2.933,5.595-8.962c0.001-0.002,0.001-0.003,0.002-0.005
			c0.167-0.337,0.34-0.634,0.518-0.895c0,0,0.057-0.184,0.173-0.516c1.075-3.056,0.816-12.916,17.515-13.771v-0.041
			c0,0,0.119,0.01,0.336,0.023c1.081-0.043,2.205-0.023,3.374,0.064c6.102-0.084,17.748-1.301,19.387-9.22
			c0,0-0.577,7.229-3.311,13.993c-0.57,1.409-1.232,2.797-2.004,4.097c-1.109,1.868-2.444,3.548-4.045,4.837l6.9-4.629
			c0,0,14.384,10.699,16.64,24.973c0.338,2.137,0.406,4.351,0.111,6.623c4.656,3.935,17.479,19.432,8.895,46.738
			c-0.488,1.552-1.041,3.141-1.674,4.77c-2.154,8.189,3.019,26.076,7.112,42.671c4.095,16.595,7.637,27.572,9.792,28.434h0.926
			c1.022-0.069,2.016-0.303,2.74,0c1.948-0.41,4.155-0.224,6.321,0h7.123c11.523-3.492,6.744-13.27,4.998-15.016
			s-1.048-8.381-0.35-10.825c31.53-46.545-15.186-109.877-46.653-138.028c-5.125-4.584-9.845-8.235-13.757-10.729
			c-1.053-0.671-2.045-1.344-2.991-2.018c-24.177-17.199-14.644-34.822-14.644-34.822s24.095,3.919,31.777,13.482
			c0.559,0.754,2.74,0.336,4.831-0.994c3.133-1.992,6.063-6.031,3.025-11.266c0,0,20.206-2.344,22.412-16.275
			c-0.003-0.005-0.006-0.01-0.009-0.015c-0.008-0.017-0.019-0.03-0.027-0.047c-0.635-1.206-1.596-2.129-2.781-2.904
			c-5.226-3.417-14.772-4.011-19.595-13.78c-0.001-0.002-0.002-0.004-0.003-0.006c-0.271-0.547-0.551-1.027-0.84-1.45
			c0,0-0.09-0.299-0.278-0.835c-2.343-6.654-20.021-50.213-73.257-22.828l15.015,15.451l-14.237-9.555
			c0,0-23.307,17.337-26.962,40.465c-0.546,3.461-0.657,7.05-0.18,10.73c-7.545,6.377-28.322,31.486-14.412,75.732
			c0.791,2.515,1.688,5.088,2.711,7.727c3.492,13.27-4.889,42.253-11.523,69.141c-6.635,26.889-12.222,41.903-15.713,43.3
			c-15.016,1.396-13.619,15.365-13.619,15.365S186.763,358.384,202.826,358.384z"/>
		<g>
			<defs>
				<rect id="SVGID_1_" x="218.258" y="274.763" width="96.029" height="83.621"/>
			</defs>
			<clipPath id="SVGID_2_">
				<use xlink:href="#SVGID_1_"  overflow="visible"/>
			</clipPath>
			<path clip-path="url(#SVGID_2_)" fill="#FFFFFF" d="M277.695,318.673c0,0,0.133,0.077,0.335,0.25
				c0.203,0.17,0.477,0.438,0.749,0.808c0.137,0.186,0.282,0.391,0.401,0.629c0.137,0.229,0.242,0.492,0.35,0.766
				c0.078,0.282,0.193,0.572,0.228,0.884c0.021,0.156,0.041,0.313,0.061,0.471c0.012,0.159,0.002,0.32,0.002,0.48
				c0.007,0.322-0.063,0.639-0.123,0.948c-0.051,0.312-0.204,0.59-0.298,0.87c-0.111,0.274-0.285,0.508-0.42,0.737
				c-0.128,0.236-0.326,0.404-0.473,0.58c-0.154,0.172-0.293,0.328-0.448,0.435c-0.146,0.116-0.278,0.209-0.386,0.286
				c-0.216,0.151-0.962,0.145-0.962,0.145s0.066-0.141,0.19-0.369c0.063-0.113,0.137-0.251,0.229-0.399
				c0.1-0.145,0.169-0.334,0.264-0.521c0.046-0.095,0.093-0.193,0.142-0.296c0.053-0.1,0.105-0.201,0.139-0.315
				c0.072-0.226,0.173-0.45,0.244-0.69c0.05-0.246,0.136-0.49,0.165-0.747c0.026-0.258,0.087-0.514,0.072-0.777
				c0.002-0.131,0.016-0.263,0.009-0.394l-0.03-0.391c-0.015-0.26-0.068-0.516-0.106-0.766c-0.072-0.243-0.104-0.492-0.183-0.717
				c-0.066-0.229-0.139-0.443-0.209-0.645c-0.146-0.397-0.283-0.735-0.389-0.97c-0.102-0.237-0.17-0.374-0.17-0.374
				c0.374-5.511-3.081-7.191-4.779-8.873c-3.752-16.623,6.181-27.456,6.181-27.456c-12.327,8.965-12.327,26.71-12.327,26.71
				s0,0-1.495-0.094c-0.223-9.416-13.097-19.006-18.396-22.561c2.91,3.252,4.101,10.801,4.481,13.314
				c0.468,3.082,7.472,15.783,7.378,16.063c-5.323,3.735-3.082,9.899-3.176,11.301c0,0-2.977,4.026-2.833,11.469
				c0.035,1.865,0.265,3.941,0.789,6.227c-0.461,4.709-3.43,7.268-4.307,7.894c-0.261,0.169-0.506,0.331-0.742,0.488
				c-0.001,0.001-0.001,0.001-0.001,0.001c-2.542,1.131-8.339,4.679-2.134,4.804l0.004-0.004c4.899,0.6,7.29-0.235,8.384-1.834
				c2.521-5.229,7.284-10.179,7.751-8.872c0.468,1.308-0.84,5.23-4.763,9.62c-3.922,4.389-2.615,4.949,3.456,5.416
				c6.07,0.467,5.229-3.829,4.575-4.203c-0.653-0.373,1.774-3.081,3.27-4.669c1.47-1.563,8.907,0.763,11.368,0.837
				c0.136-0.219,0.289-0.428,0.456-0.619c0.106-0.113,0.207-0.24,0.327-0.34c0.117-0.104,0.23-0.217,0.354-0.314
				c0.244-0.197,0.495-0.389,0.765-0.549c0.261-0.179,0.542-0.312,0.815-0.468c0.28-0.135,0.567-0.258,0.854-0.38l0.436-0.164
				c0.123-0.043,0.243-0.092,0.367-0.132c-0.248-0.228-0.477-0.476-0.697-0.731c-0.221-0.255-0.416-0.531-0.595-0.818
				c-0.174-0.289-0.339-0.584-0.472-0.895c-0.073-0.151-0.119-0.315-0.18-0.472c-0.061-0.157-0.103-0.319-0.146-0.481
				c-0.047-0.16-0.082-0.323-0.104-0.49c-0.022-0.164-0.058-0.327-0.07-0.492c-0.025-0.331-0.034-0.659-0.009-0.986
				c0.008-0.163,0.024-0.324,0.054-0.485l0.091-0.477c0.067,0.319,0.089,0.634,0.172,0.94c0.037,0.152,0.059,0.307,0.103,0.456
				c0.045,0.149,0.093,0.296,0.131,0.444c0.041,0.146,0.103,0.289,0.152,0.433c0.046,0.144,0.116,0.28,0.175,0.419
				c0.059,0.14,0.116,0.277,0.191,0.409c0.073,0.131,0.132,0.269,0.217,0.393c0.083,0.125,0.147,0.259,0.233,0.382
				c0.086,0.122,0.165,0.248,0.255,0.366c0.181,0.236,0.371,0.465,0.567,0.688c0.4,0.441,0.849,0.834,1.323,1.202l0.843,0.653
				l-1.024,0.26c-0.568,0.143-1.132,0.295-1.69,0.465c-0.549,0.189-1.1,0.381-1.622,0.631c-0.264,0.12-0.518,0.256-0.772,0.396
				c-0.126,0.069-0.243,0.152-0.367,0.229c-0.125,0.074-0.234,0.167-0.355,0.249c-0.235,0.171-0.449,0.368-0.655,0.577
				c-0.103,0.106-0.194,0.22-0.286,0.338c-0.081,0.112-0.164,0.229-0.223,0.358c-1.466,3.615,3.948,2.743,7.138,2.743
				c0.323,0,0.617-0.018,0.897-0.042c3.87-0.242,6.029-1.584,7.172-3.288c2.354-3.509,0.429-8.531,0.429-8.531
				C301.825,321.392,278.91,318.86,277.695,318.673z"/>
		</g>
	</g>
	<g>
		<path fill="#FFFFFF" d="M34.851,383.494v22.815h-2.074v-21.182l-1.352,0.378c-0.66,0.22-1.319,0.376-1.319,0.345v-0.91
			c0.031,0,1.477-0.943,2.168-1.446H34.851z"/>
		<path fill="#FFFFFF" d="M56.975,404.801v1.509H41.576c0.157-6.474,3.457-8.705,8.485-11.313H50.03
			c3.017-1.477,4.211-3.426,4.211-5.563c0-2.231-1.509-4.306-5.123-4.463c-2.923,0-4.399,1.604-5.091,2.451
			c-0.597-0.471-0.974-0.816-1.571-1.225c1.1-1.415,3.614-2.703,6.631-2.703c4.934,0,7.165,2.734,7.165,5.939
			c0,3.017-1.729,5.531-5.625,7.417c-3.362,1.665-6.285,4.054-6.442,7.95H56.975z"/>
		<path fill="#FFFFFF" d="M60.715,387.297V385.6c1.98-1.006,4.558-2.137,7.825-2.137c3.771,0,7.291,1.445,7.291,5.217
			c0,2.86-1.162,4.745-4.085,5.531c3.048,0.754,5.563,1.947,5.563,5.75c0,3.646-3.552,6.883-9.491,6.883
			c-4.399,0-6.851-0.816-7.699-1.225v-1.666c2.42,1.1,4.966,1.54,7.511,1.54c5.5,0,7.04-3.709,7.04-5.532
			c0-2.262-2.169-4.87-6.317-4.87h-2.702v-1.509h2.702c4.055,0,5.092-2.168,5.092-4.432c0-2.011-1.383-4.18-4.903-4.18
			C65.586,384.971,62.381,386.448,60.715,387.297z"/>
		<path fill="#FFFFFF" d="M99.025,406.31h-3.049l-8.202-22.47h2.2l7.542,21.024l7.542-21.024h2.483L99.025,406.31z"/>
		<path fill="#FFFFFF" d="M111.533,383.871h13.042v1.32h-11.062v9.02h8.202v1.352h-8.202v9.396h11.815v1.352h-13.796V383.871z"/>
		<path fill="#FFFFFF" d="M145.945,385.16h-8.391v21.149h-2.105V385.16h-8.642v-1.352h19.138V385.16z"/>
		<path fill="#FFFFFF" d="M170.899,395.122c0,6.662-3.3,11.816-11.785,11.816c-8.643,0-11.753-4.746-11.848-11.816
			c0-7.7,4.337-11.659,11.848-11.785C167.316,383.463,170.899,387.422,170.899,395.122z M159.114,405.524
			c1.288,0,9.68-0.031,9.68-10.434c0-10.56-8.423-10.371-9.711-10.371c-1.509,0-9.365,0.063-9.365,10.371
			C149.718,405.87,157.605,405.524,159.114,405.524z"/>
		<path fill="#FFFFFF" d="M191.453,396.756v1.604h-8.8v-1.604H191.453z"/>
		<path fill="#FFFFFF" d="M221.341,384.374v1.917c-1.918-0.911-3.866-1.635-6.034-1.635c-0.503,0-8.579,0.189-8.957,10.497
			c0.126,10.401,8.108,10.214,8.957,10.214c2.546,0,4.588-1.1,6.254-2.451v2.168c-0.975,0.66-3.206,1.886-6.254,1.886
			c-7.448,0-11.439-5.312-11.533-11.785c0-7.699,5.185-11.848,11.533-11.848C217.443,383.337,219.549,383.84,221.341,384.374z"/>
		<path fill="#FFFFFF" d="M239.977,404.896v1.414h-13.733v-22.47h2.074v20.238c0,0.849-0.031,0.817,0.691,0.817H239.977z"/>
		<path fill="#FFFFFF" d="M243.34,383.84h2.011v22.47h-2.011V383.84z"/>
		<path fill="#FFFFFF" d="M251.102,383.871h2.985l12.477,20.051v-20.051h2.074v22.438h-2.357l-13.167-21.149v21.149h-2.012V383.871z
			"/>
		<path fill="#FFFFFF" d="M273.823,383.84h2.012v22.47h-2.012V383.84z"/>
		<path fill="#FFFFFF" d="M303.835,395.217c0,6.348-3.017,11.218-11.093,11.815v1.038c0,3.079,2.482,4.242,3.991,4.398v0.346
			c-5.061-0.251-5.595-3.645-5.595-4.776v-1.006c-7.981-0.598-10.842-5.311-10.936-11.815c0-7.7,4.337-11.66,11.848-11.786
			C300.253,383.557,303.835,387.517,303.835,395.217z M292.051,405.619c1.288,0,9.647-0.032,9.647-10.435
			c0-10.56-8.359-10.37-9.68-10.37c-1.508,0-9.364,0.063-9.364,10.37C282.654,405.964,290.542,405.619,292.051,405.619z"/>
		<path fill="#FFFFFF" d="M324.735,383.84v12.854c0,3.394,0.094,10.025-8.611,10.025c-8.831,0-8.862-6.663-8.862-10.276V383.84
			h2.043v12.854c0,1.979,0.031,8.548,6.819,8.548c6.631,0,6.631-6.506,6.631-8.548V383.84H324.735z"/>
		<path fill="#FFFFFF" d="M330.016,383.871h13.041v1.32h-11.062v9.02h8.202v1.352h-8.202v9.396h11.815v1.352h-13.795V383.871z"/>
		<path fill="#FFFFFF" d="M365.685,406.31h-3.048l-8.202-22.47h2.199l7.543,21.024l7.542-21.024h2.482L365.685,406.31z"/>
		<path fill="#FFFFFF" d="M378.193,383.871h13.042v1.32h-11.063v9.02h8.202v1.352h-8.202v9.396h11.816v1.352h-13.796V383.871z
			 M386.647,376.8l-3.08,4.023h-1.917l1.791-4.023H386.647z"/>
		<path fill="#FFFFFF" d="M412.606,385.16h-8.392v21.149h-2.105V385.16h-8.643v-1.352h19.14V385.16z"/>
		<path fill="#FFFFFF" d="M415.403,383.871h13.042v1.32h-11.062v9.02h8.202v1.352h-8.202v9.396h11.815v1.352h-13.796V383.871z
			 M423.857,376.8l-3.08,4.023h-1.917l1.791-4.023H423.857z"/>
		<path fill="#FFFFFF" d="M440.733,383.84c5.092,0,7.448,2.294,7.448,5.374c0,3.52-2.702,5.153-4.871,5.405
			c2.169,0.503,2.797,1.979,3.457,3.614l3.237,8.076h-2.074c-2.515-6.349-3.426-8.642-3.583-8.987
			c-0.628-1.352-1.445-1.949-2.859-1.949h-6.317v10.937h-1.979v-22.47H440.733z M440.733,393.833c4.18,0,5.312-2.482,5.312-4.337
			c0-1.979-1.352-4.273-5.312-4.273h-5.563v8.61H440.733z"/>
		<path fill="#FFFFFF" d="M454.342,383.84h2.011v22.47h-2.011V383.84z"/>
		<path fill="#FFFFFF" d="M462.104,383.871h2.986l12.476,20.051v-20.051h2.074v22.438h-2.357l-13.167-21.149v21.149h-2.012V383.871z
			"/>
		<path fill="#FFFFFF" d="M490.797,383.84h3.236l7.889,22.47h-2.326l-2.828-8.548h-9.176l-3.489,8.548h-2.168L490.797,383.84z
			 M492.368,384.877l-4.463,11.565h8.454L492.368,384.877z"/>
		<path fill="#FFFFFF" d="M505.285,383.84h2.011v22.47h-2.011V383.84z"/>
		<path fill="#FFFFFF" d="M520.621,383.84c5.091,0,7.447,2.294,7.447,5.374c0,3.52-2.702,5.153-4.871,5.405
			c2.169,0.503,2.797,1.979,3.458,3.614l3.236,8.076h-2.074c-2.514-6.349-3.426-8.642-3.583-8.987
			c-0.628-1.352-1.445-1.949-2.859-1.949h-6.316v10.937h-1.98v-22.47H520.621z M520.621,393.833c4.179,0,5.311-2.482,5.311-4.337
			c0-1.979-1.352-4.273-5.311-4.273h-5.563v8.61H520.621z"/>
		<path fill="#FFFFFF" d="M533.946,383.871h13.041v1.32h-11.062v9.02h8.202v1.352h-8.202v9.396h11.815v1.352h-13.795V383.871z"/>
	</g>
</g>
</svg>
