<?xml version="1.0" encoding="utf-8"?>
<!-- Generator: Adobe Illustrator 16.0.0, SVG Export Plug-In . SVG Version: 6.00 Build 0)  -->
<!DOCTYPE svg PUBLIC "-//W3C//DTD SVG 1.1//EN" "http://www.w3.org/Graphics/SVG/1.1/DTD/svg11.dtd">
<svg version="1.1" id="Calque_1" xmlns="http://www.w3.org/2000/svg" xmlns:xlink="http://www.w3.org/1999/xlink" x="0px" y="0px"
	 width="118.25px" height="83.611px" viewBox="0 0 118.25 83.611" enable-background="new 0 0 118.25 83.611" xml:space="preserve">
<g>
	<g>
		<path fill="#FFFFFF" d="M28.339,65.754c0,0,3.848-0.056,9.621-0.14c2.886-0.022,6.253-0.049,9.861-0.077
			c3.608-0.011,7.456-0.021,11.304-0.033c3.848,0.012,7.696,0.022,11.304,0.033c3.607,0.027,6.975,0.054,9.861,0.076
			c5.772,0.084,9.621,0.141,9.621,0.141s-3.848,0.057-9.621,0.141c-2.886,0.022-6.253,0.049-9.861,0.076
			c-3.608,0.011-7.456,0.021-11.304,0.033c-3.848-0.012-7.696-0.022-11.304-0.033c-3.607-0.028-6.975-0.055-9.861-0.077
			C32.188,65.81,28.339,65.754,28.339,65.754z"/>
	</g>
	<g>
		<circle fill="none" stroke="#FFFFFF" stroke-width="0.4" stroke-miterlimit="10" cx="42.735" cy="59.77" r="5.783"/>
		<g>
			
				<line fill="none" stroke="#FFFFFF" stroke-width="0.2" stroke-miterlimit="10" x1="42.735" y1="53.986" x2="42.735" y2="65.554"/>
			<line fill="none" stroke="#FFFFFF" stroke-width="0.2" stroke-miterlimit="10" x1="48.518" y1="59.77" x2="36.952" y2="59.77"/>
			<line fill="none" stroke="#FFFFFF" stroke-width="0.2" stroke-miterlimit="10" x1="46.825" y1="55.68" x2="38.645" y2="63.859"/>
			<line fill="none" stroke="#FFFFFF" stroke-width="0.2" stroke-miterlimit="10" x1="46.825" y1="63.859" x2="38.645" y2="55.68"/>
		</g>
		<g>
			
				<line fill="none" stroke="#FFFFFF" stroke-width="0.2" stroke-miterlimit="10" x1="57.571" y1="56.346" x2="57.571" y2="65.554"/>
			
				<line fill="none" stroke="#FFFFFF" stroke-width="0.2" stroke-miterlimit="10" x1="62.174" y1="60.949" x2="52.967" y2="60.949"/>
			
				<line fill="none" stroke="#FFFFFF" stroke-width="0.2" stroke-miterlimit="10" x1="60.827" y1="57.694" x2="54.315" y2="64.205"/>
			
				<line fill="none" stroke="#FFFFFF" stroke-width="0.2" stroke-miterlimit="10" x1="60.827" y1="64.205" x2="54.315" y2="57.694"/>
		</g>
		<path fill="#FFFFFF" d="M62.612,45.303c-0.923-3.582-3.239-6.84-3.837-7.641c-0.093-0.121-0.146-0.189-0.146-0.189l0,0
			c-0.998-1.297-2.044-2.432-2.987-3.314c-0.665-0.621-1.281-1.119-1.789-1.461c-0.139-0.093-0.268-0.184-0.39-0.275
			c-2.025-1.508-2.207-2.994-2.078-3.867c0.103-0.232,0.19-0.484,0.239-0.787c0.872-5.438-3.05-7.688-3.635-7.993
			c-0.047-0.024-0.079-0.04-0.079-0.04l-0.273,0.191l-0.387,0.272l-1.199,0.843l1.944-2.09c-7.129-3.472-9.342,2.348-9.635,3.234
			c-0.023,0.072-0.034,0.113-0.034,0.113c-0.037,0.056-0.072,0.12-0.109,0.193c0,0,0,0,0,0.001c-0.607,1.308-1.87,1.414-2.552,1.882
			c-0.155,0.105-0.279,0.23-0.36,0.393c-0.004,0.002-0.004,0.004-0.006,0.006v0.002c0.332,1.839,3.016,2.09,3.016,2.09
			c-0.388,0.703,0.013,1.229,0.433,1.483c0.28,0.171,0.572,0.219,0.644,0.118c0.959-1.248,3.96-1.838,4.15-1.875
			c-0.033,0.334-0.047,0.672-0.011,1.021c-0.995,0.806-3.706,3.953-2.22,9.612l-0.012-0.012c0,0,0.105,0.536,0.396,1.276
			c0.003,0.014,0.008,0.025,0.012,0.039c-0.009-0.055-0.021-0.158-0.021-0.313c0.007-0.113,0.002-0.256,0.039-0.414
			c0.021-0.163,0.072-0.34,0.139-0.531c0.082-0.185,0.158-0.399,0.301-0.587c0.123-0.206,0.297-0.386,0.481-0.572
			c0.204-0.15,0.403-0.353,0.651-0.458l0.365-0.186l0.386-0.132c0.26-0.095,0.525-0.128,0.784-0.17
			c0.262-0.058,0.521-0.046,0.769-0.051c0.497-0.027,0.949,0.068,1.334,0.118c0.195,0.023,0.366,0.086,0.52,0.123
			c0.15,0.045,0.285,0.084,0.395,0.115c0.214,0.07,0.335,0.111,0.335,0.111s-0.128,0.004-0.355,0.012
			c-0.112,0.001-0.248,0.001-0.403,0.002c-0.156,0.004-0.33-0.014-0.52-0.002c-0.188,0.01-0.395,0.02-0.606,0.022
			c-0.217-0.005-0.438,0.028-0.669,0.051c-0.229,0.021-0.466,0.044-0.698,0.097c-0.234,0.045-0.475,0.082-0.695,0.172l-0.341,0.104
			l-0.317,0.15c-0.216,0.086-0.39,0.229-0.577,0.345c-0.161,0.146-0.339,0.271-0.463,0.431c-0.145,0.146-0.244,0.313-0.351,0.46
			c-0.348,0.576-0.457,1.063-0.472,1.136c0.003,0.008,0.006,0.016,0.009,0.023l-0.012-0.01c-0.241,3.598-1.74,5.514-2.207,5.688
			c-1.991,0.142-1.852,2.487-1.852,2.487s0.004-0.492,2.131-0.445c2.129,0.047,1.992-1.09,2.333-1.915
			c0.16-0.387,0.98-1.269,2.06-2.5c0.714,0.511,1.585,0.885,2.662,0.978l0.919-0.205l0.021-0.005h0.02l0.717-0.013l0.723,0.035
			l0.72,0.1c0.235,0.063,0.479,0.1,0.709,0.186c0.228,0.093,0.466,0.159,0.677,0.291l0.327,0.177l0.3,0.22
			c0.209,0.137,0.369,0.33,0.543,0.502c0.166,0.184,0.3,0.393,0.44,0.593c0.105,0.219,0.24,0.427,0.323,0.653
			c0.072,0.23,0.181,0.451,0.225,0.687c0.05,0.233,0.122,0.464,0.141,0.702c0.025,0.236,0.059,0.473,0.074,0.707
			c0.018,0.475,0.024,0.943-0.013,1.412c-0.007,0.471-0.103,0.934-0.15,1.397c0.005-0.468,0.043-0.935,0.02-1.399
			c0.004-0.466-0.042-0.928-0.092-1.387c-0.032-0.229-0.08-0.454-0.122-0.68c-0.039-0.227-0.121-0.439-0.174-0.661
			c-0.053-0.224-0.164-0.421-0.242-0.633c-0.085-0.209-0.219-0.392-0.323-0.587c-0.136-0.176-0.266-0.357-0.417-0.514
			c-0.167-0.146-0.313-0.313-0.504-0.423l-0.274-0.183l-0.297-0.145c-0.191-0.107-0.412-0.156-0.62-0.232
			c-0.211-0.064-0.432-0.101-0.646-0.154l-0.668-0.081l-0.681-0.022l-0.66,0.021l-0.865,0.208c-0.284,0.094-0.575,0.173-0.856,0.279
			c-0.27,0.119-0.557,0.213-0.809,0.364c-0.269,0.127-0.508,0.291-0.746,0.457c-0.224,0.181-0.458,0.354-0.637,0.574
			c-0.1,0.103-0.191,0.21-0.266,0.331c-0.079,0.117-0.164,0.23-0.22,0.361c-0.258,0.5-0.372,1.071-0.365,1.65
			c0.007,0.58,0.124,1.166,0.306,1.734c0.092,0.284,0.202,0.563,0.317,0.842c0.125,0.274,0.247,0.551,0.384,0.82
			c0.553,1.078,1.245,2.104,2.023,3.036l0.213,0.257l-0.326,0.018c-0.336,0.02-0.674,0.037-1.008,0.096
			c-0.327,0.069-0.658,0.153-0.954,0.311c-0.153,0.069-0.288,0.168-0.423,0.268c-0.129,0.106-0.247,0.227-0.348,0.363
			c-0.199,0.27-0.307,1.359-0.316,1.706c1.122,0.093,2.189-0.155,3.196-0.118c8.651,0.322,12.815,0.113,14.928-2.327
			c0.023-0.026,0.043-0.054,0.065-0.08C62.89,52.302,63.249,47.783,62.612,45.303z"/>
		<g>
			<path fill="#FFFFFF" d="M60.43,55.093h-1.771c-2.518,1.157-6.011,1.745-10.453,1.745c-0.471,0-0.975-0.016-1.473-0.028
				c0.16,0.118,0.348,0.202,0.563,0.202H60.43c0.53,0,0.96-0.43,0.96-0.959C61.39,55.522,60.96,55.093,60.43,55.093z"/>
		</g>
		<g>
			<g>
				<g>
					
						<line fill="none" stroke="#FFFFFF" stroke-width="0.4" stroke-linecap="round" stroke-linejoin="round" stroke-miterlimit="10" x1="48.333" y1="57.09" x2="49.368" y2="58.543"/>
					
						<line fill="none" stroke="#FFFFFF" stroke-width="0.4" stroke-linecap="round" stroke-linejoin="round" stroke-miterlimit="10" x1="48.333" y1="57.09" x2="41.961" y2="57.09"/>
				</g>
				<g>
					
						<line fill="none" stroke="#FFFFFF" stroke-width="0.4" stroke-linecap="round" stroke-linejoin="round" stroke-miterlimit="10" x1="50.403" y1="59.997" x2="49.368" y2="58.543"/>
				</g>
				
					<line fill="none" stroke="#FFFFFF" stroke-width="0.4" stroke-linecap="round" stroke-linejoin="round" stroke-miterlimit="10" x1="53.067" y1="60.033" x2="50.403" y2="60.033"/>
			</g>
			<g>
				<g>
					
						<line fill="none" stroke="#FFFFFF" stroke-width="0.4" stroke-linecap="round" stroke-linejoin="round" stroke-miterlimit="10" x1="38.497" y1="45.769" x2="42.735" y2="48.893"/>
					
						<line fill="none" stroke="#FFFFFF" stroke-width="0.4" stroke-linecap="round" stroke-linejoin="round" stroke-miterlimit="10" x1="37.17" y1="46.6" x2="41.961" y2="45.769"/>
				</g>
				
					<line fill="none" stroke="#FFFFFF" stroke-width="0.4" stroke-linecap="round" stroke-linejoin="round" stroke-miterlimit="10" x1="42.735" y1="48.893" x2="42.735" y2="57.012"/>
			</g>
		</g>
		
			<rect x="43.952" y="55.68" fill="none" stroke="#FFFFFF" stroke-width="0.5" stroke-linecap="round" stroke-linejoin="round" stroke-miterlimit="10" width="4.813" height="1.244"/>
		
			<line fill="none" stroke="#FFFFFF" stroke-width="0.5" stroke-linecap="round" stroke-linejoin="round" stroke-miterlimit="10" x1="60.827" y1="62.25" x2="76" y2="62.25"/>
		<path fill="#FFFFFF" d="M61.58,62.75c-0.69,1.531-2.224,2.604-4.009,2.604c-2.428,0-4.403-1.976-4.403-4.404
			c0-2.428,1.976-4.403,4.403-4.403s4.403,1.976,4.403,4.403c0,0.275-0.032,0.541-0.081,0.801h0.4
			c0.045-0.262,0.081-0.525,0.081-0.801c0-2.648-2.155-4.804-4.804-4.804s-4.804,2.155-4.804,4.804c0,2.649,2.155,4.805,4.804,4.805
			c2.012,0,3.732-1.246,4.446-3.004H61.58z"/>
		<path fill="#FFFFFF" d="M61.459,54.785c-0.536,0.619-1.208,1.086-1.987,1.453l0.15,0.374l0.703,0.612l0.938,1.021l0.479,0.646
			l0.333,1.438l0.099,0.979l-0.281,0.442l-0.067,0.37l14.316,0.13c-0.359-0.144-0.937-1.692-1.621-4.466
			c-0.684-2.772-1.548-5.763-1.188-7.132c0.105-0.271,0.198-0.537,0.279-0.797c1.436-4.563-0.708-7.153-1.486-7.811
			c0.051-0.38,0.039-0.75-0.018-1.107c-0.378-2.385-2.781-4.174-2.781-4.174l-1.153,0.773c0.268-0.215,0.49-0.495,0.676-0.808
			c0.129-0.218,0.24-0.449,0.335-0.685c0.456-1.131,0.553-2.339,0.553-2.339c-0.273,1.323-2.22,1.526-3.239,1.541
			c-0.195-0.015-0.384-0.019-0.563-0.011c-0.037-0.002-0.057-0.004-0.057-0.004v0.007c-2.791,0.143-2.748,1.79-2.927,2.302
			c-0.021,0.055-0.029,0.086-0.029,0.086c-0.029,0.043-0.06,0.094-0.087,0.149c0,0.001,0,0.001,0,0.001
			c-0.497,1.008-0.396,1.146-0.936,1.498c-0.122,0.08-0.221,0.175-0.286,0.299c-0.001,0.002-0.003,0.004-0.003,0.006
			c0,0-0.001,0-0.001,0.001c0.228,1.437,1.226,1.603,1.226,1.603c-0.313,0.539-0.012,0.956,0.312,1.162
			c0.216,0.137,0.44,0.18,0.499,0.102c0.792-0.986,2.178-0.42,2.178-0.42s0.983,1.816-1.51,3.591c-0.098,0.069-0.2,0.14-0.309,0.208
			c-0.213,0.136-0.451,0.309-0.704,0.508c0.313,2.551-0.073,6.344-1.771,8.365L61.459,54.785z M68.831,54.039
			c0.937-0.324,1.656-0.685,2.089-1.441c0.494,1.527,2.672,7.408,3.488,9.637c-1.792-0.016-4.266-0.039-4.266-0.039
			C69.683,60.314,68.686,54.432,68.831,54.039z M68.742,62.252c-0.081,0-0.169-0.002-0.265-0.004l-1.023-7.129L68.742,62.252z"/>
		
			<polyline fill="none" stroke="#FFFFFF" stroke-width="0.5" stroke-linecap="round" stroke-linejoin="round" stroke-miterlimit="10" points="
			76,62.25 77.359,59.286 77.359,59.027 77.359,53.965 		"/>
		<path fill="#FFFFFF" d="M77.359,53.965v3.729h5.592v-3.729H77.359z M81.28,56.365h-0.693v0.693h-0.863v-0.693H79.03v-0.863h0.693
			v-0.693h0.863v0.693h0.693V56.365z"/>
	</g>
</g>
</svg>
